<svg width="163" height="164" viewBox="0 0 163 164" fill="none" xmlns="http://www.w3.org/2000/svg">
<path d="M0.44754 13.9716C0.44754 6.79191 6.26784 0.971619 13.4475 0.971619H149.552C156.732 0.971619 162.552 6.79192 162.552 13.9716V150.077C162.552 157.256 156.732 163.077 149.552 163.077H13.4475C6.26783 163.077 0.44754 157.256 0.44754 150.077V13.9716Z" fill="black"/>
<path d="M30.9861 108.052C30.9861 101.898 35.9747 96.9097 42.1285 96.9097C48.2823 96.9097 53.271 101.898 53.271 108.052V123.025C53.271 129.179 48.2823 134.167 42.1285 134.167C35.9747 134.167 30.9861 129.179 30.9861 123.025V108.052Z" fill="white"/>
<path d="M30.9861 108.052C30.9861 101.898 35.9747 96.9097 42.1285 96.9097C48.2823 96.9097 53.271 101.898 53.271 108.052V123.025C53.271 129.179 48.2823 134.167 42.1285 134.167C35.9747 134.167 30.9861 129.179 30.9861 123.025V108.052Z" fill="white"/>
<path d="M30.9861 108.052C30.9861 101.898 35.9747 96.9097 42.1285 96.9097C48.2823 96.9097 53.271 101.898 53.271 108.052V123.025C53.271 129.179 48.2823 134.167 42.1285 134.167C35.9747 134.167 30.9861 129.179 30.9861 123.025V108.052Z" fill="white"/>
<path d="M30.9861 108.052C30.9861 101.898 35.9747 96.9097 42.1285 96.9097C48.2823 96.9097 53.271 101.898 53.271 108.052V123.025C53.271 129.179 48.2823 134.167 42.1285 134.167C35.9747 134.167 30.9861 129.179 30.9861 123.025V108.052Z" fill="white"/>
<path d="M30.9861 108.052C30.9861 101.898 35.9747 96.9097 42.1285 96.9097C48.2823 96.9097 53.271 101.898 53.271 108.052V123.025C53.271 129.179 48.2823 134.167 42.1285 134.167C35.9747 134.167 30.9861 129.179 30.9861 123.025V108.052Z" fill="white"/>
<path d="M30.9861 108.052C30.9861 101.898 35.9747 96.9097 42.1285 96.9097C48.2823 96.9097 53.271 101.898 53.271 108.052V123.025C53.271 129.179 48.2823 134.167 42.1285 134.167C35.9747 134.167 30.9861 129.179 30.9861 123.025V108.052Z" fill="white"/>
<path d="M53.2709 83.678C53.2709 89.928 48.2043 94.9946 41.9543 94.9946C35.7044 94.9946 30.6378 89.928 30.6378 83.678C30.6378 77.4281 35.7044 72.3615 41.9543 72.3615C48.2043 72.3615 53.2709 77.4281 53.2709 83.678Z" fill="white"/>
<path d="M70.5316 84.0262C70.5316 77.8724 75.5203 72.8838 81.6741 72.8838C87.8279 72.8838 92.8165 77.8724 92.8165 84.0262V123.025C92.8165 129.179 87.8279 134.167 81.6741 134.167C75.5203 134.167 70.5316 129.179 70.5316 123.025V84.0262Z" fill="white"/>
<path d="M70.5316 84.0262C70.5316 77.8724 75.5203 72.8838 81.6741 72.8838C87.8279 72.8838 92.8165 77.8724 92.8165 84.0262V123.025C92.8165 129.179 87.8279 134.167 81.6741 134.167C75.5203 134.167 70.5316 129.179 70.5316 123.025V84.0262Z" fill="white"/>
<path d="M70.5316 84.0262C70.5316 77.8724 75.5203 72.8838 81.6741 72.8838C87.8279 72.8838 92.8165 77.8724 92.8165 84.0262V123.025C92.8165 129.179 87.8279 134.167 81.6741 134.167C75.5203 134.167 70.5316 129.179 70.5316 123.025V84.0262Z" fill="white"/>
<path d="M70.5316 84.0262C70.5316 77.8724 75.5203 72.8838 81.6741 72.8838C87.8279 72.8838 92.8165 77.8724 92.8165 84.0262V123.025C92.8165 129.179 87.8279 134.167 81.6741 134.167C75.5203 134.167 70.5316 129.179 70.5316 123.025V84.0262Z" fill="white"/>
<path d="M70.5316 84.0262C70.5316 77.8724 75.5203 72.8838 81.6741 72.8838C87.8279 72.8838 92.8165 77.8724 92.8165 84.0262V123.025C92.8165 129.179 87.8279 134.167 81.6741 134.167C75.5203 134.167 70.5316 129.179 70.5316 123.025V84.0262Z" fill="white"/>
<path d="M70.5316 84.0262C70.5316 77.8724 75.5203 72.8838 81.6741 72.8838C87.8279 72.8838 92.8165 77.8724 92.8165 84.0262V123.025C92.8165 129.179 87.8279 134.167 81.6741 134.167C75.5203 134.167 70.5316 129.179 70.5316 123.025V84.0262Z" fill="white"/>
<path d="M92.8165 58.6075C92.8165 64.8575 87.7499 69.9241 81.5 69.9241C75.25 69.9241 70.1834 64.8575 70.1834 58.6075C70.1834 52.3576 75.25 47.291 81.5 47.291C87.7499 47.291 92.8165 52.3576 92.8165 58.6075Z" fill="white"/>
<path d="M110.077 66.9644C110.077 60.8106 115.066 55.8219 121.22 55.8219C127.374 55.8219 132.362 60.8106 132.362 66.9644V123.025C132.362 129.179 127.374 134.167 121.22 134.167C115.066 134.167 110.077 129.179 110.077 123.025V66.9644Z" fill="white"/>
<path d="M110.077 66.9644C110.077 60.8106 115.066 55.8219 121.22 55.8219C127.374 55.8219 132.362 60.8106 132.362 66.9644V123.025C132.362 129.179 127.374 134.167 121.22 134.167C115.066 134.167 110.077 129.179 110.077 123.025V66.9644Z" fill="white"/>
<path d="M110.077 66.9644C110.077 60.8106 115.066 55.8219 121.22 55.8219C127.374 55.8219 132.362 60.8106 132.362 66.9644V123.025C132.362 129.179 127.374 134.167 121.22 134.167C115.066 134.167 110.077 129.179 110.077 123.025V66.9644Z" fill="white"/>
<path d="M110.077 66.9644C110.077 60.8106 115.066 55.8219 121.22 55.8219C127.374 55.8219 132.362 60.8106 132.362 66.9644V123.025C132.362 129.179 127.374 134.167 121.22 134.167C115.066 134.167 110.077 129.179 110.077 123.025V66.9644Z" fill="white"/>
<path d="M110.077 66.9644C110.077 60.8106 115.066 55.8219 121.22 55.8219C127.374 55.8219 132.362 60.8106 132.362 66.9644V123.025C132.362 129.179 127.374 134.167 121.22 134.167C115.066 134.167 110.077 129.179 110.077 123.025V66.9644Z" fill="white"/>
<path d="M110.077 66.9644C110.077 60.8106 115.066 55.8219 121.22 55.8219C127.374 55.8219 132.362 60.8106 132.362 66.9644V123.025C132.362 129.179 127.374 134.167 121.22 134.167C115.066 134.167 110.077 129.179 110.077 123.025V66.9644Z" fill="white"/>
<path d="M132.362 41.1975C132.362 47.4474 127.296 52.514 121.046 52.514C114.796 52.514 109.729 47.4474 109.729 41.1975C109.729 34.9475 114.796 29.8809 121.046 29.8809C127.296 29.8809 132.362 34.9475 132.362 41.1975Z" fill="white"/>
</svg>
